<svg width="896" height="151" viewBox="0 0 896 151" fill="none" xmlns="http://www.w3.org/2000/svg">
<path d="M353.975 125.455C347.672 125.455 342.141 123.955 337.384 120.955C332.656 117.955 328.959 113.758 326.293 108.364C323.656 102.97 322.338 96.6667 322.338 89.4545C322.338 82.1818 323.656 75.8333 326.293 70.4091C328.959 64.9848 332.656 60.7727 337.384 57.7727C342.141 54.7727 347.672 53.2727 353.975 53.2727C360.278 53.2727 365.793 54.7727 370.52 57.7727C375.278 60.7727 378.975 64.9848 381.611 70.4091C384.278 75.8333 385.611 82.1818 385.611 89.4545C385.611 96.6667 384.278 102.97 381.611 108.364C378.975 113.758 375.278 117.955 370.52 120.955C365.793 123.955 360.278 125.455 353.975 125.455ZM353.975 115.818C358.762 115.818 362.702 114.591 365.793 112.136C368.884 109.682 371.172 106.455 372.656 102.455C374.141 98.4545 374.884 94.1212 374.884 89.4545C374.884 84.7879 374.141 80.4394 372.656 76.4091C371.172 72.3788 368.884 69.1212 365.793 66.6364C362.702 64.1515 358.762 62.9091 353.975 62.9091C349.187 62.9091 345.247 64.1515 342.156 66.6364C339.065 69.1212 336.778 72.3788 335.293 76.4091C333.808 80.4394 333.065 84.7879 333.065 89.4545C333.065 94.1212 333.808 98.4545 335.293 102.455C336.778 106.455 339.065 109.682 342.156 112.136C345.247 114.591 349.187 115.818 353.975 115.818ZM401.986 124V54.1818H412.35V64.7273H413.077C414.35 61.2727 416.653 58.4697 419.986 56.3182C423.319 54.1667 427.077 53.0909 431.259 53.0909C432.047 53.0909 433.031 53.1061 434.213 53.1364C435.395 53.1667 436.289 53.2121 436.895 53.2727V64.1818C436.531 64.0909 435.698 63.9545 434.395 63.7727C433.122 63.5606 431.774 63.4545 430.35 63.4545C426.956 63.4545 423.925 64.1667 421.259 65.5909C418.622 66.9848 416.531 68.9242 414.986 71.4091C413.471 73.8636 412.713 76.6667 412.713 79.8182V124H401.986ZM475.85 125.455C469.304 125.455 463.668 123.909 458.94 120.818C454.213 117.727 450.577 113.47 448.031 108.045C445.486 102.621 444.213 96.4242 444.213 89.4545C444.213 82.3636 445.516 76.1061 448.122 70.6818C450.759 65.2273 454.425 60.9697 459.122 57.9091C463.85 54.8182 469.365 53.2727 475.668 53.2727C480.577 53.2727 485.001 54.1818 488.94 56C492.88 57.8182 496.107 60.3636 498.622 63.6364C501.137 66.9091 502.698 70.7273 503.304 75.0909H492.577C491.759 71.9091 489.94 69.0909 487.122 66.6364C484.334 64.1515 480.577 62.9091 475.85 62.9091C471.668 62.9091 468.001 64 464.85 66.1818C461.728 68.3333 459.289 71.3788 457.531 75.3182C455.804 79.2273 454.94 83.8182 454.94 89.0909C454.94 94.4848 455.789 99.1818 457.486 103.182C459.213 107.182 461.637 110.288 464.759 112.5C467.91 114.712 471.607 115.818 475.85 115.818C478.637 115.818 481.168 115.333 483.44 114.364C485.713 113.394 487.637 112 489.213 110.182C490.789 108.364 491.91 106.182 492.577 103.636H503.304C502.698 107.758 501.198 111.47 498.804 114.773C496.44 118.045 493.304 120.652 489.395 122.591C485.516 124.5 481.001 125.455 475.85 125.455ZM529.713 82V124H518.986V30.9091H529.713V65.0909H530.622C532.259 61.4848 534.713 58.6212 537.986 56.5C541.289 54.3485 545.683 53.2727 551.168 53.2727C555.925 53.2727 560.092 54.2273 563.668 56.1364C567.243 58.0151 570.016 60.9091 571.986 64.8182C573.986 68.697 574.986 73.6364 574.986 79.6364V124H564.259V80.3636C564.259 74.8182 562.819 70.5303 559.94 67.5C557.092 64.4394 553.137 62.9091 548.077 62.9091C544.562 62.9091 541.41 63.6515 538.622 65.1364C535.865 66.6212 533.683 68.7879 532.077 71.6364C530.501 74.4848 529.713 77.9394 529.713 82ZM623.884 125.455C617.156 125.455 611.353 123.97 606.475 121C601.626 118 597.884 113.818 595.247 108.455C592.641 103.061 591.338 96.7879 591.338 89.6364C591.338 82.4848 592.641 76.1818 595.247 70.7273C597.884 65.2424 601.55 60.9697 606.247 57.9091C610.975 54.8182 616.49 53.2727 622.793 53.2727C626.429 53.2727 630.02 53.8788 633.565 55.0909C637.111 56.303 640.338 58.2727 643.247 61C646.156 63.697 648.475 67.2727 650.202 71.7273C651.929 76.1818 652.793 81.6667 652.793 88.1818V92.7273H598.975V83.4545H641.884C641.884 79.5151 641.096 76 639.52 72.9091C637.975 69.8182 635.762 67.3788 632.884 65.5909C630.035 63.803 626.672 62.9091 622.793 62.9091C618.52 62.9091 614.823 63.9697 611.702 66.0909C608.611 68.1818 606.232 70.9091 604.565 74.2727C602.899 77.6364 602.065 81.2424 602.065 85.0909V91.2727C602.065 96.5455 602.975 101.015 604.793 104.682C606.641 108.318 609.202 111.091 612.475 113C615.747 114.879 619.55 115.818 623.884 115.818C626.702 115.818 629.247 115.424 631.52 114.636C633.823 113.818 635.808 112.606 637.475 111C639.141 109.364 640.429 107.333 641.338 104.909L651.702 107.818C650.611 111.333 648.778 114.424 646.202 117.091C643.626 119.727 640.444 121.788 636.656 123.273C632.868 124.727 628.611 125.455 623.884 125.455ZM718.565 69.8182L708.929 72.5455C708.323 70.9394 707.429 69.3788 706.247 67.8636C705.096 66.3182 703.52 65.0455 701.52 64.0455C699.52 63.0455 696.959 62.5455 693.838 62.5455C689.565 62.5455 686.005 63.5303 683.156 65.5C680.338 67.4394 678.929 69.9091 678.929 72.9091C678.929 75.5758 679.899 77.6818 681.838 79.2273C683.778 80.7727 686.808 82.0606 690.929 83.0909L701.293 85.6364C707.535 87.1515 712.187 89.4697 715.247 92.5909C718.308 95.6818 719.838 99.6667 719.838 104.545C719.838 108.545 718.687 112.121 716.384 115.273C714.111 118.424 710.929 120.909 706.838 122.727C702.747 124.545 697.99 125.455 692.565 125.455C685.444 125.455 679.55 123.909 674.884 120.818C670.217 117.727 667.262 113.212 666.02 107.273L676.202 104.727C677.172 108.485 679.005 111.303 681.702 113.182C684.429 115.061 687.99 116 692.384 116C697.384 116 701.353 114.939 704.293 112.818C707.262 110.667 708.747 108.091 708.747 105.091C708.747 102.667 707.899 100.636 706.202 99C704.505 97.3333 701.899 96.0909 698.384 95.2727L686.747 92.5455C680.353 91.0303 675.656 88.6818 672.656 85.5C669.687 82.2879 668.202 78.2727 668.202 73.4545C668.202 69.5151 669.308 66.0303 671.52 63C673.762 59.9697 676.808 57.5909 680.656 55.8636C684.535 54.1364 688.929 53.2727 693.838 53.2727C700.747 53.2727 706.172 54.7879 710.111 57.8182C714.081 60.8485 716.899 64.8485 718.565 69.8182ZM766.35 54.1818V63.2727H730.168V54.1818H766.35ZM740.713 37.4545H751.44V104C751.44 107.03 751.88 109.303 752.759 110.818C753.668 112.303 754.819 113.303 756.213 113.818C757.637 114.303 759.137 114.545 760.713 114.545C761.895 114.545 762.865 114.485 763.622 114.364C764.38 114.212 764.986 114.091 765.44 114L767.622 123.636C766.895 123.909 765.88 124.182 764.577 124.455C763.274 124.758 761.622 124.909 759.622 124.909C756.592 124.909 753.622 124.258 750.713 122.955C747.834 121.652 745.44 119.667 743.531 117C741.653 114.333 740.713 110.97 740.713 106.909V37.4545ZM782.486 124V54.1818H792.85V64.7273H793.577C794.85 61.2727 797.153 58.4697 800.486 56.3182C803.819 54.1667 807.577 53.0909 811.759 53.0909C812.547 53.0909 813.531 53.1061 814.713 53.1364C815.895 53.1667 816.789 53.2121 817.395 53.2727V64.1818C817.031 64.0909 816.198 63.9545 814.895 63.7727C813.622 63.5606 812.274 63.4545 810.85 63.4545C807.456 63.4545 804.425 64.1667 801.759 65.5909C799.122 66.9848 797.031 68.9242 795.486 71.4091C793.971 73.8636 793.213 76.6667 793.213 79.8182V124H782.486ZM857.259 125.455C850.531 125.455 844.728 123.97 839.85 121C835.001 118 831.259 113.818 828.622 108.455C826.016 103.061 824.713 96.7879 824.713 89.6364C824.713 82.4848 826.016 76.1818 828.622 70.7273C831.259 65.2424 834.925 60.9697 839.622 57.9091C844.35 54.8182 849.865 53.2727 856.168 53.2727C859.804 53.2727 863.395 53.8788 866.94 55.0909C870.486 56.303 873.713 58.2727 876.622 61C879.531 63.697 881.85 67.2727 883.577 71.7273C885.304 76.1818 886.168 81.6667 886.168 88.1818V92.7273H832.35V83.4545H875.259C875.259 79.5151 874.471 76 872.895 72.9091C871.35 69.8182 869.137 67.3788 866.259 65.5909C863.41 63.803 860.047 62.9091 856.168 62.9091C851.895 62.9091 848.198 63.9697 845.077 66.0909C841.986 68.1818 839.607 70.9091 837.94 74.2727C836.274 77.6364 835.44 81.2424 835.44 85.0909V91.2727C835.44 96.5455 836.35 101.015 838.168 104.682C840.016 108.318 842.577 111.091 845.85 113C849.122 114.879 852.925 115.818 857.259 115.818C860.077 115.818 862.622 115.424 864.895 114.636C867.198 113.818 869.183 112.606 870.85 111C872.516 109.364 873.804 107.333 874.713 104.909L885.077 107.818C883.986 111.333 882.153 114.424 879.577 117.091C877.001 119.727 873.819 121.788 870.031 123.273C866.243 124.727 861.986 125.455 857.259 125.455Z" fill="#F0E9E9"/>
<path fill-rule="evenodd" clip-rule="evenodd" d="M0.000225516 133.148C7.51936e-05 133.065 0 132.983 0 132.9C0 59.5015 59.5015 0 132.9 0C206.299 0 265.8 59.5015 265.8 132.9C265.8 132.983 265.8 133.065 265.8 133.148H172.996C173.158 131.685 173.241 130.199 173.241 128.693C173.241 106.55 155.29 88.6001 133.148 88.6001C111.005 88.6001 93.0549 106.55 93.0549 128.693C93.0549 130.199 93.1379 131.685 93.2996 133.148H0.000225516Z" fill="white"/>
</svg>
